<mxfile host="app.diagrams.net" modified="2021-12-15T17:22:47.258Z" agent="5.0 (Windows NT 10.0; Win64; x64) AppleWebKit/537.36 (KHTML, like Gecko) Chrome/96.0.4664.93 Safari/537.36" etag="DNWx2AP9HMNvL_o1SyHU" version="15.9.6" type="github">
  <diagram id="qMkqEGbiWhOaJR7-j5VW" name="Page-1">
    <mxGraphModel dx="868" dy="482" grid="1" gridSize="10" guides="1" tooltips="1" connect="1" arrows="1" fold="1" page="1" pageScale="1" pageWidth="827" pageHeight="1169" math="0" shadow="0">
      <root>
        <mxCell id="0" />
        <mxCell id="1" parent="0" />
        <mxCell id="aWT13BtmB5jxo0pSSmGH-5" style="edgeStyle=orthogonalEdgeStyle;rounded=0;orthogonalLoop=1;jettySize=auto;html=1;exitX=1;exitY=0.5;exitDx=0;exitDy=0;exitPerimeter=0;entryX=0;entryY=0.5;entryDx=0;entryDy=0;" parent="1" source="aWT13BtmB5jxo0pSSmGH-1" target="aWT13BtmB5jxo0pSSmGH-4" edge="1">
          <mxGeometry relative="1" as="geometry" />
        </mxCell>
        <mxCell id="aWT13BtmB5jxo0pSSmGH-1" value="Mongo" style="shape=cylinder3;whiteSpace=wrap;html=1;boundedLbl=1;backgroundOutline=1;size=15;fillColor=#f5f5f5;fontColor=#333333;strokeColor=#666666;" parent="1" vertex="1">
          <mxGeometry x="120" y="130" width="60" height="80" as="geometry" />
        </mxCell>
        <mxCell id="aWT13BtmB5jxo0pSSmGH-6" style="edgeStyle=orthogonalEdgeStyle;rounded=0;orthogonalLoop=1;jettySize=auto;html=1;exitX=1;exitY=0.5;exitDx=0;exitDy=0;exitPerimeter=0;entryX=0;entryY=0.5;entryDx=0;entryDy=0;" parent="1" source="aWT13BtmB5jxo0pSSmGH-2" target="aWT13BtmB5jxo0pSSmGH-4" edge="1">
          <mxGeometry relative="1" as="geometry" />
        </mxCell>
        <mxCell id="aWT13BtmB5jxo0pSSmGH-2" value="MySql" style="shape=cylinder3;whiteSpace=wrap;html=1;boundedLbl=1;backgroundOutline=1;size=15;fillColor=#f5f5f5;fontColor=#333333;strokeColor=#666666;" parent="1" vertex="1">
          <mxGeometry x="120" y="230" width="60" height="80" as="geometry" />
        </mxCell>
        <mxCell id="aWT13BtmB5jxo0pSSmGH-14" style="edgeStyle=orthogonalEdgeStyle;rounded=0;orthogonalLoop=1;jettySize=auto;html=1;exitX=1;exitY=0.5;exitDx=0;exitDy=0;exitPerimeter=0;entryX=0;entryY=0.5;entryDx=0;entryDy=0;" parent="1" source="aWT13BtmB5jxo0pSSmGH-11" target="aWT13BtmB5jxo0pSSmGH-13" edge="1">
          <mxGeometry relative="1" as="geometry" />
        </mxCell>
        <mxCell id="aWT13BtmB5jxo0pSSmGH-11" value="" style="shape=cylinder3;whiteSpace=wrap;html=1;boundedLbl=1;backgroundOutline=1;size=15;fillColor=#ffe6cc;strokeColor=#d79b00;" parent="1" vertex="1">
          <mxGeometry x="349" y="100" width="130" height="220" as="geometry" />
        </mxCell>
        <mxCell id="aWT13BtmB5jxo0pSSmGH-9" style="edgeStyle=orthogonalEdgeStyle;rounded=0;orthogonalLoop=1;jettySize=auto;html=1;exitX=1;exitY=0.5;exitDx=0;exitDy=0;entryX=0;entryY=0;entryDx=0;entryDy=45;entryPerimeter=0;" parent="1" source="aWT13BtmB5jxo0pSSmGH-4" target="aWT13BtmB5jxo0pSSmGH-7" edge="1">
          <mxGeometry relative="1" as="geometry" />
        </mxCell>
        <mxCell id="aWT13BtmB5jxo0pSSmGH-10" style="edgeStyle=orthogonalEdgeStyle;rounded=0;orthogonalLoop=1;jettySize=auto;html=1;exitX=1;exitY=0.5;exitDx=0;exitDy=0;" parent="1" source="aWT13BtmB5jxo0pSSmGH-4" target="aWT13BtmB5jxo0pSSmGH-8" edge="1">
          <mxGeometry relative="1" as="geometry" />
        </mxCell>
        <mxCell id="aWT13BtmB5jxo0pSSmGH-4" value="ETL&lt;br&gt;&lt;br&gt;Extract, Transform and Load" style="rounded=0;whiteSpace=wrap;html=1;fillColor=#d5e8d4;strokeColor=#82b366;" parent="1" vertex="1">
          <mxGeometry x="230" y="170" width="90" height="100" as="geometry" />
        </mxCell>
        <mxCell id="aWT13BtmB5jxo0pSSmGH-7" value="covid_mysql" style="shape=cylinder3;whiteSpace=wrap;html=1;boundedLbl=1;backgroundOutline=1;size=15;fillColor=#ffe6cc;strokeColor=#d79b00;" parent="1" vertex="1">
          <mxGeometry x="370" y="130" width="80" height="70" as="geometry" />
        </mxCell>
        <mxCell id="aWT13BtmB5jxo0pSSmGH-8" value="multa_mongo" style="shape=cylinder3;whiteSpace=wrap;html=1;boundedLbl=1;backgroundOutline=1;size=15;fillColor=#ffe6cc;strokeColor=#d79b00;" parent="1" vertex="1">
          <mxGeometry x="370" y="235" width="80" height="70" as="geometry" />
        </mxCell>
        <mxCell id="aWT13BtmB5jxo0pSSmGH-12" value="Arquivos .csv" style="text;strokeColor=none;fillColor=none;align=left;verticalAlign=middle;spacingLeft=4;spacingRight=4;overflow=hidden;points=[[0,0.5],[1,0.5]];portConstraint=eastwest;rotatable=0;" parent="1" vertex="1">
          <mxGeometry x="374" y="60" width="80" height="30" as="geometry" />
        </mxCell>
        <mxCell id="aWT13BtmB5jxo0pSSmGH-13" value="Reporting" style="whiteSpace=wrap;html=1;aspect=fixed;fillColor=#dae8fc;strokeColor=#6c8ebf;" parent="1" vertex="1">
          <mxGeometry x="508" y="170" width="80" height="80" as="geometry" />
        </mxCell>
      </root>
    </mxGraphModel>
  </diagram>
</mxfile>
